<mxfile host="app.diagrams.net" agent="Mozilla/5.0 (Windows NT 10.0; Win64; x64) AppleWebKit/537.36 (KHTML, like Gecko) Chrome/132.0.0.0 Safari/537.36" version="26.0.13">
  <diagram name="Página-1" id="ysO1k51nOjcaHEiqDqQ2">
    <mxGraphModel dx="1050" dy="530" grid="1" gridSize="10" guides="1" tooltips="1" connect="1" arrows="1" fold="1" page="1" pageScale="1" pageWidth="2910" pageHeight="1030" math="0" shadow="0">
      <root>
        <mxCell id="0" />
        <mxCell id="1" parent="0" />
        <mxCell id="a9DDQnHwPIiveUVgymR4-1" value="&lt;font style=&quot;vertical-align: inherit;&quot;&gt;&lt;font style=&quot;vertical-align: inherit;&quot;&gt;Generar A3 automático desde referencia&lt;/font&gt;&lt;/font&gt;" style="swimlane;childLayout=stackLayout;resizeParent=1;resizeParentMax=0;horizontal=1;startSize=20;horizontalStack=0;html=1;" vertex="1" parent="1">
          <mxGeometry x="80" y="40" width="1790" height="700" as="geometry" />
        </mxCell>
        <mxCell id="a9DDQnHwPIiveUVgymR4-2" value="&lt;font style=&quot;vertical-align: inherit;&quot;&gt;&lt;font style=&quot;vertical-align: inherit;&quot;&gt;Referencia&lt;/font&gt;&lt;/font&gt;" style="swimlane;startSize=20;horizontal=0;html=1;" vertex="1" parent="a9DDQnHwPIiveUVgymR4-1">
          <mxGeometry y="20" width="1790" height="220" as="geometry" />
        </mxCell>
        <mxCell id="a9DDQnHwPIiveUVgymR4-10" style="edgeStyle=orthogonalEdgeStyle;rounded=0;orthogonalLoop=1;jettySize=auto;html=1;" edge="1" parent="a9DDQnHwPIiveUVgymR4-2" source="a9DDQnHwPIiveUVgymR4-5" target="a9DDQnHwPIiveUVgymR4-9">
          <mxGeometry relative="1" as="geometry" />
        </mxCell>
        <mxCell id="a9DDQnHwPIiveUVgymR4-5" value="" style="points=[[0.145,0.145,0],[0.5,0,0],[0.855,0.145,0],[1,0.5,0],[0.855,0.855,0],[0.5,1,0],[0.145,0.855,0],[0,0.5,0]];shape=mxgraph.bpmn.event;html=1;verticalLabelPosition=bottom;labelBackgroundColor=#ffffff;verticalAlign=top;align=center;perimeter=ellipsePerimeter;outlineConnect=0;aspect=fixed;outline=standard;symbol=general;fillColor=#f8cecc;strokeColor=#b85450;" vertex="1" parent="a9DDQnHwPIiveUVgymR4-2">
          <mxGeometry x="50" y="70" width="50" height="50" as="geometry" />
        </mxCell>
        <mxCell id="a9DDQnHwPIiveUVgymR4-12" style="edgeStyle=orthogonalEdgeStyle;rounded=0;orthogonalLoop=1;jettySize=auto;html=1;" edge="1" parent="a9DDQnHwPIiveUVgymR4-2" source="a9DDQnHwPIiveUVgymR4-9" target="a9DDQnHwPIiveUVgymR4-11">
          <mxGeometry relative="1" as="geometry" />
        </mxCell>
        <mxCell id="a9DDQnHwPIiveUVgymR4-9" value="Usuario prestador ingresa ZonaSer Prestador" style="points=[[0.25,0,0],[0.5,0,0],[0.75,0,0],[1,0.25,0],[1,0.5,0],[1,0.75,0],[0.75,1,0],[0.5,1,0],[0.25,1,0],[0,0.75,0],[0,0.5,0],[0,0.25,0]];shape=mxgraph.bpmn.task2;whiteSpace=wrap;rectStyle=rounded;size=10;html=1;container=1;expand=0;collapsible=0;taskMarker=user;fillColor=#fff2cc;strokeColor=#d6b656;" vertex="1" parent="a9DDQnHwPIiveUVgymR4-2">
          <mxGeometry x="140" y="55" width="120" height="80" as="geometry" />
        </mxCell>
        <mxCell id="a9DDQnHwPIiveUVgymR4-11" value="Módulo &quot;Consulta de Solicitudes&quot; opción Referencia" style="points=[[0.25,0,0],[0.5,0,0],[0.75,0,0],[1,0.25,0],[1,0.5,0],[1,0.75,0],[0.75,1,0],[0.5,1,0],[0.25,1,0],[0,0.75,0],[0,0.5,0],[0,0.25,0]];shape=mxgraph.bpmn.task2;whiteSpace=wrap;rectStyle=rounded;size=10;html=1;container=1;expand=0;collapsible=0;taskMarker=user;fillColor=#fff2cc;strokeColor=#d6b656;" vertex="1" parent="a9DDQnHwPIiveUVgymR4-2">
          <mxGeometry x="290" y="55" width="120" height="80" as="geometry" />
        </mxCell>
        <mxCell id="a9DDQnHwPIiveUVgymR4-16" style="edgeStyle=orthogonalEdgeStyle;rounded=0;orthogonalLoop=1;jettySize=auto;html=1;" edge="1" parent="a9DDQnHwPIiveUVgymR4-2" source="a9DDQnHwPIiveUVgymR4-14" target="a9DDQnHwPIiveUVgymR4-15">
          <mxGeometry relative="1" as="geometry" />
        </mxCell>
        <mxCell id="a9DDQnHwPIiveUVgymR4-14" value="Buscar referencias &quot;Aceptadas&quot;" style="points=[[0.25,0,0],[0.5,0,0],[0.75,0,0],[1,0.25,0],[1,0.5,0],[1,0.75,0],[0.75,1,0],[0.5,1,0],[0.25,1,0],[0,0.75,0],[0,0.5,0],[0,0.25,0]];shape=mxgraph.bpmn.task2;whiteSpace=wrap;rectStyle=rounded;size=10;html=1;container=1;expand=0;collapsible=0;taskMarker=user;fillColor=#fff2cc;strokeColor=#d6b656;" vertex="1" parent="a9DDQnHwPIiveUVgymR4-2">
          <mxGeometry x="440" y="55" width="120" height="80" as="geometry" />
        </mxCell>
        <mxCell id="a9DDQnHwPIiveUVgymR4-13" style="edgeStyle=orthogonalEdgeStyle;rounded=0;orthogonalLoop=1;jettySize=auto;html=1;" edge="1" parent="a9DDQnHwPIiveUVgymR4-2" source="a9DDQnHwPIiveUVgymR4-11" target="a9DDQnHwPIiveUVgymR4-14">
          <mxGeometry relative="1" as="geometry">
            <mxPoint x="470" y="95" as="targetPoint" />
          </mxGeometry>
        </mxCell>
        <mxCell id="a9DDQnHwPIiveUVgymR4-15" value="Clic en &lt;br&gt;&quot;Detalle &lt;br&gt;Referencia&quot;" style="points=[[0.145,0.145,0],[0.5,0,0],[0.855,0.145,0],[1,0.5,0],[0.855,0.855,0],[0.5,1,0],[0.145,0.855,0],[0,0.5,0]];shape=mxgraph.bpmn.event;html=1;verticalLabelPosition=bottom;labelBackgroundColor=#ffffff;verticalAlign=top;align=center;perimeter=ellipsePerimeter;outlineConnect=0;aspect=fixed;outline=catching;symbol=signal;fillColor=#d5e8d4;strokeColor=#82b366;" vertex="1" parent="a9DDQnHwPIiveUVgymR4-2">
          <mxGeometry x="590" y="70" width="50" height="50" as="geometry" />
        </mxCell>
        <mxCell id="a9DDQnHwPIiveUVgymR4-19" style="edgeStyle=orthogonalEdgeStyle;rounded=0;orthogonalLoop=1;jettySize=auto;html=1;entryX=0;entryY=0.5;entryDx=0;entryDy=0;entryPerimeter=0;" edge="1" parent="a9DDQnHwPIiveUVgymR4-2" source="a9DDQnHwPIiveUVgymR4-18" target="a9DDQnHwPIiveUVgymR4-20">
          <mxGeometry relative="1" as="geometry">
            <mxPoint x="840" y="95" as="targetPoint" />
          </mxGeometry>
        </mxCell>
        <mxCell id="a9DDQnHwPIiveUVgymR4-18" value="Registrar servicio, tecnología, cantidad y fecha de traslado o ingreso del paciente" style="points=[[0.25,0,0],[0.5,0,0],[0.75,0,0],[1,0.25,0],[1,0.5,0],[1,0.75,0],[0.75,1,0],[0.5,1,0],[0.25,1,0],[0,0.75,0],[0,0.5,0],[0,0.25,0]];shape=mxgraph.bpmn.task2;whiteSpace=wrap;rectStyle=rounded;size=10;html=1;container=1;expand=0;collapsible=0;taskMarker=user;fillColor=#fff2cc;strokeColor=#d6b656;" vertex="1" parent="a9DDQnHwPIiveUVgymR4-2">
          <mxGeometry x="680" y="55" width="120" height="80" as="geometry" />
        </mxCell>
        <mxCell id="a9DDQnHwPIiveUVgymR4-17" style="edgeStyle=orthogonalEdgeStyle;rounded=0;orthogonalLoop=1;jettySize=auto;html=1;" edge="1" parent="a9DDQnHwPIiveUVgymR4-2" source="a9DDQnHwPIiveUVgymR4-15" target="a9DDQnHwPIiveUVgymR4-18">
          <mxGeometry relative="1" as="geometry">
            <mxPoint x="700" y="95" as="targetPoint" />
          </mxGeometry>
        </mxCell>
        <mxCell id="a9DDQnHwPIiveUVgymR4-20" value="Clic en &lt;br&gt;&quot;Guardar&quot;" style="points=[[0.145,0.145,0],[0.5,0,0],[0.855,0.145,0],[1,0.5,0],[0.855,0.855,0],[0.5,1,0],[0.145,0.855,0],[0,0.5,0]];shape=mxgraph.bpmn.event;html=1;verticalLabelPosition=bottom;labelBackgroundColor=#ffffff;verticalAlign=top;align=center;perimeter=ellipsePerimeter;outlineConnect=0;aspect=fixed;outline=catching;symbol=signal;fillColor=#d5e8d4;strokeColor=#82b366;" vertex="1" parent="a9DDQnHwPIiveUVgymR4-2">
          <mxGeometry x="840" y="70" width="50" height="50" as="geometry" />
        </mxCell>
        <mxCell id="a9DDQnHwPIiveUVgymR4-32" style="edgeStyle=orthogonalEdgeStyle;rounded=0;orthogonalLoop=1;jettySize=auto;html=1;" edge="1" parent="a9DDQnHwPIiveUVgymR4-2" source="a9DDQnHwPIiveUVgymR4-22" target="a9DDQnHwPIiveUVgymR4-25">
          <mxGeometry relative="1" as="geometry" />
        </mxCell>
        <mxCell id="a9DDQnHwPIiveUVgymR4-22" value="Enviar información para crear A3" style="points=[[0.25,0,0],[0.5,0,0],[0.75,0,0],[1,0.25,0],[1,0.5,0],[1,0.75,0],[0.75,1,0],[0.5,1,0],[0.25,1,0],[0,0.75,0],[0,0.5,0],[0,0.25,0]];shape=mxgraph.bpmn.task2;whiteSpace=wrap;rectStyle=rounded;size=10;html=1;container=1;expand=0;collapsible=0;taskMarker=script;fillColor=#fff2cc;strokeColor=#d6b656;" vertex="1" parent="a9DDQnHwPIiveUVgymR4-2">
          <mxGeometry x="920" y="55" width="120" height="80" as="geometry" />
        </mxCell>
        <mxCell id="a9DDQnHwPIiveUVgymR4-21" style="edgeStyle=orthogonalEdgeStyle;rounded=0;orthogonalLoop=1;jettySize=auto;html=1;" edge="1" parent="a9DDQnHwPIiveUVgymR4-2" source="a9DDQnHwPIiveUVgymR4-20" target="a9DDQnHwPIiveUVgymR4-22">
          <mxGeometry relative="1" as="geometry">
            <mxPoint x="950" y="95" as="targetPoint" />
          </mxGeometry>
        </mxCell>
        <mxCell id="a9DDQnHwPIiveUVgymR4-52" style="edgeStyle=orthogonalEdgeStyle;rounded=0;orthogonalLoop=1;jettySize=auto;html=1;entryX=0;entryY=0.5;entryDx=0;entryDy=0;" edge="1" parent="a9DDQnHwPIiveUVgymR4-2" source="a9DDQnHwPIiveUVgymR4-25" target="a9DDQnHwPIiveUVgymR4-51">
          <mxGeometry relative="1" as="geometry" />
        </mxCell>
        <mxCell id="a9DDQnHwPIiveUVgymR4-25" value="" style="shape=mxgraph.bpmn.data2;labelPosition=center;verticalLabelPosition=bottom;align=center;verticalAlign=top;size=15;html=1;bpmnTransferType=input;fillColor=#dae8fc;strokeColor=#6c8ebf;" vertex="1" parent="a9DDQnHwPIiveUVgymR4-2">
          <mxGeometry x="1080" y="65" width="40" height="60" as="geometry" />
        </mxCell>
        <mxCell id="a9DDQnHwPIiveUVgymR4-51" value="Información:&lt;br&gt;Doc afiliado, afiliado, responsable, diagnostico, nombre diagnostico, clasificación, clase, tipo, alto costo, siniestro, proveedor, contrato, producto, cantidad, valor, nombre pro, doc numero, doc ubicacion, observacion, fecha prestación y ambito" style="text;html=1;align=center;verticalAlign=middle;whiteSpace=wrap;rounded=0;strokeColor=default;dashed=1;" vertex="1" parent="a9DDQnHwPIiveUVgymR4-2">
          <mxGeometry x="1180" y="27.5" width="200" height="135" as="geometry" />
        </mxCell>
        <mxCell id="a9DDQnHwPIiveUVgymR4-3" value="&lt;font style=&quot;vertical-align: inherit;&quot;&gt;&lt;font style=&quot;vertical-align: inherit;&quot;&gt;Solicitud de autorización&lt;/font&gt;&lt;/font&gt;" style="swimlane;startSize=20;horizontal=0;html=1;" vertex="1" parent="a9DDQnHwPIiveUVgymR4-1">
          <mxGeometry y="240" width="1790" height="220" as="geometry" />
        </mxCell>
        <mxCell id="a9DDQnHwPIiveUVgymR4-24" value="Generar A3 en estado APROBADO" style="points=[[0.25,0,0],[0.5,0,0],[0.75,0,0],[1,0.25,0],[1,0.5,0],[1,0.75,0],[0.75,1,0],[0.5,1,0],[0.25,1,0],[0,0.75,0],[0,0.5,0],[0,0.25,0]];shape=mxgraph.bpmn.task2;whiteSpace=wrap;rectStyle=rounded;size=10;html=1;container=1;expand=0;collapsible=0;taskMarker=script;fillColor=#fff2cc;strokeColor=#d6b656;" vertex="1" parent="a9DDQnHwPIiveUVgymR4-3">
          <mxGeometry x="1040" y="60" width="120" height="80" as="geometry" />
        </mxCell>
        <mxCell id="a9DDQnHwPIiveUVgymR4-4" value="&lt;font style=&quot;vertical-align: inherit;&quot;&gt;&lt;font style=&quot;vertical-align: inherit;&quot;&gt;OASIS - eaut&lt;/font&gt;&lt;/font&gt;" style="swimlane;startSize=20;horizontal=0;html=1;" vertex="1" parent="a9DDQnHwPIiveUVgymR4-1">
          <mxGeometry y="460" width="1790" height="240" as="geometry" />
        </mxCell>
        <mxCell id="a9DDQnHwPIiveUVgymR4-23" style="edgeStyle=orthogonalEdgeStyle;rounded=0;orthogonalLoop=1;jettySize=auto;html=1;exitX=0.5;exitY=1;exitDx=0;exitDy=0;exitPerimeter=0;" edge="1" parent="a9DDQnHwPIiveUVgymR4-1" source="a9DDQnHwPIiveUVgymR4-25" target="a9DDQnHwPIiveUVgymR4-24">
          <mxGeometry relative="1" as="geometry">
            <mxPoint x="990" y="360" as="targetPoint" />
          </mxGeometry>
        </mxCell>
      </root>
    </mxGraphModel>
  </diagram>
</mxfile>
